<?xml version="1.0" standalone="no"?>
<!DOCTYPE svg PUBLIC "-//W3C//DTD SVG 20010904//EN"
 "http://www.w3.org/TR/2001/REC-SVG-20010904/DTD/svg10.dtd">
<svg version="1.0" xmlns="http://www.w3.org/2000/svg"
 width="1920.000000pt" height="1080.000000pt" viewBox="0 0 1920.000000 1080.000000"
 preserveAspectRatio="xMidYMid meet">

<g transform="translate(0.000000,1080.000000) scale(0.100000,-0.100000)"
fill="#000000" stroke="none">
<path d="M7770 5700 l0 -160 30 0 30 0 0 160 0 160 -30 0 -30 0 0 -160z"/>
<path d="M7978 5835 c-23 -31 -23 -35 5 -35 12 1 38 14 57 30 l34 30 -39 0
c-30 -1 -44 -6 -57 -25z"/>
<path d="M8384 5845 c-10 -25 4 -45 30 -45 25 0 44 30 31 50 -10 15 -55 12
-61 -5z"/>
<path d="M9234 5846 c-10 -26 4 -48 28 -44 17 2 23 10 23 28 0 18 -6 26 -23
28 -13 2 -25 -3 -28 -12z"/>
<path d="M7315 5835 c-22 -8 -41 -15 -42 -15 -1 0 -11 -16 -23 -35 -29 -47
-30 -140 -3 -187 26 -45 57 -59 128 -56 57 3 60 4 63 30 3 27 3 27 -45 22 -39
-5 -53 -2 -73 14 -22 17 -25 28 -25 80 0 84 21 106 91 98 42 -5 53 -3 58 10
11 28 7 33 -31 43 -47 13 -49 13 -98 -4z"/>
<path d="M8890 5691 l0 -151 31 0 32 0 -6 110 c-3 61 -4 110 -2 110 2 0 32
-49 66 -110 l63 -110 43 0 43 0 0 150 0 150 -30 0 -30 0 0 -112 0 -112 -64
109 -63 110 -42 3 -41 3 0 -150z"/>
<path d="M10680 5689 l0 -151 84 3 c73 4 88 7 110 28 32 31 35 82 6 111 -19
19 -19 22 -5 36 16 16 20 71 7 90 -15 24 -54 34 -126 34 l-76 0 0 -151z m144
78 c14 -23 -15 -47 -56 -47 -25 0 -28 3 -28 36 0 34 1 35 36 32 22 -2 41 -10
48 -21z m6 -117 c14 -27 -19 -60 -60 -60 -28 0 -30 2 -30 40 0 40 0 40 40 40
29 0 42 -5 50 -20z"/>
<path d="M7595 5774 c-5 -1 -23 -5 -38 -8 -57 -13 -86 -111 -52 -176 20 -38
43 -50 99 -50 69 0 98 30 104 107 4 52 1 63 -19 86 -23 26 -72 47 -94 41z m45
-73 c28 -53 2 -115 -45 -109 -25 2 -31 9 -38 38 -13 53 5 90 42 90 20 0 34 -7
41 -19z"/>
<path d="M7952 5768 c-85 -23 -98 -179 -17 -216 27 -13 103 -16 129 -6 9 3 16
17 16 31 0 20 -4 24 -17 18 -47 -18 -81 -17 -102 4 -34 34 -26 41 54 41 l75 0
0 30 c0 46 -26 89 -58 96 -15 3 -31 7 -37 8 -5 2 -25 -1 -43 -6z m66 -50 c24
-24 13 -38 -28 -38 -26 0 -40 5 -40 13 0 18 21 37 40 37 9 0 21 -5 28 -12z"/>
<path d="M8188 5768 c-18 -3 -38 -14 -45 -24 -18 -25 -16 -74 3 -96 14 -14 14
-20 4 -33 -7 -8 -10 -24 -7 -36 3 -13 -2 -28 -14 -40 -27 -27 -24 -54 9 -79
23 -18 37 -21 89 -18 72 5 113 33 113 78 0 47 -21 63 -89 68 -72 5 -78 24 -11
33 53 7 84 40 76 80 -3 18 0 29 9 33 8 3 15 12 15 20 0 16 -97 26 -152 14z
m62 -47 c14 -27 13 -37 -6 -55 -20 -21 -54 -4 -54 27 0 44 41 63 60 28z m24
-194 c17 -13 17 -14 1 -31 -24 -24 -98 -19 -103 8 -2 10 2 22 10 27 20 13 72
11 92 -4z"/>
<path d="M8605 5774 c-5 -1 -23 -5 -38 -8 -57 -13 -86 -111 -52 -176 20 -38
43 -50 99 -50 69 0 98 30 104 107 4 52 1 63 -19 86 -23 26 -72 47 -94 41z m45
-73 c28 -53 2 -115 -45 -109 -25 2 -31 9 -38 38 -13 53 5 90 42 90 20 0 34 -7
41 -19z"/>
<path d="M9428 5770 c-62 -12 -95 -79 -78 -155 13 -58 41 -77 109 -73 52 3 56
5 59 30 3 25 2 26 -37 21 -54 -7 -71 8 -71 62 0 52 17 68 66 63 31 -2 38 1 45
20 6 16 5 24 -4 27 -27 8 -64 10 -89 5z"/>
<path d="M9632 5770 c-41 -10 -45 -14 -38 -38 6 -18 11 -19 40 -10 42 13 66 5
66 -22 0 -17 -6 -20 -44 -20 -80 0 -121 -60 -80 -118 19 -27 88 -31 116 -6 16
16 18 16 24 0 3 -9 17 -16 31 -16 l25 0 -4 95 c-2 79 -6 98 -23 113 -24 23
-68 32 -113 22z m68 -145 c0 -26 -32 -50 -56 -41 -22 9 -17 46 9 56 36 15 47
11 47 -15z"/>
<path d="M9923 5764 c-23 -8 -39 -10 -41 -4 -2 6 -15 10 -28 10 -24 0 -24 0
-24 -115 l0 -115 30 0 30 0 1 63 c2 96 8 112 49 112 l35 0 3 -87 3 -88 29 0
30 0 0 93 c0 130 -28 161 -117 131z"/>
<path d="M10180 5772 c-86 -12 -115 -155 -43 -212 59 -46 162 -11 178 61 21
94 -42 164 -135 151z m58 -64 c7 -7 12 -30 12 -53 0 -46 -13 -65 -45 -65 -32
0 -45 19 -45 65 0 46 13 65 45 65 12 0 26 -5 33 -12z"/>
<path d="M10483 5772 c-12 -2 -27 -10 -33 -18 -16 -18 -30 -18 -30 1 0 9 -9
15 -25 15 l-25 0 0 -115 0 -115 30 0 30 0 0 65 c0 57 3 69 25 90 13 14 33 25
45 25 15 0 20 6 20 24 0 29 -6 33 -37 28z"/>
<path d="M11595 5772 c-11 -2 -28 -11 -37 -20 -16 -14 -18 -14 -18 1 0 11 -8
17 -25 17 l-25 0 0 -115 0 -115 30 0 30 0 0 78 c0 83 9 102 47 102 32 0 43
-28 43 -109 l0 -71 30 0 30 0 0 86 c0 70 -8 110 -25 132 -6 8 -63 18 -80 14z"/>
<path d="M11833 5770 c-44 -10 -61 -25 -74 -70 -26 -87 23 -160 106 -160 55 0
93 30 105 83 21 95 -46 166 -137 147z m65 -62 c15 -15 16 -72 2 -99 -12 -21
-50 -25 -68 -7 -13 13 -16 75 -6 102 7 19 55 21 72 4z"/>
<path d="M8380 5655 l0 -115 35 0 35 0 0 115 0 115 -35 0 -35 0 0 -115z"/>
<path d="M9230 5655 l0 -115 30 0 30 0 0 115 0 115 -30 0 -30 0 0 -115z"/>
<path d="M10960 5675 c0 -82 3 -98 20 -115 23 -23 79 -27 113 -9 16 9 22 9 25
0 2 -6 15 -11 28 -11 24 0 24 0 24 115 l0 115 -30 0 -30 0 0 -64 c0 -88 -12
-116 -49 -116 -36 0 -41 12 -41 106 l0 74 -30 0 -30 0 0 -95z"/>
<path d="M11263 5755 c-13 -9 -28 -33 -34 -54 -27 -90 22 -161 111 -161 63 0
80 7 80 35 0 22 -2 23 -35 14 -52 -15 -94 3 -95 39 0 8 21 12 70 12 l70 0 0
40 c0 59 -33 90 -97 90 -28 0 -58 -7 -70 -15z m95 -37 c24 -24 13 -38 -28 -38
-26 0 -40 5 -40 13 0 18 21 37 40 37 9 0 21 -5 28 -12z"/>
<path d="M9870 5225 c0 -53 -1 -55 -20 -45 -35 19 -91 8 -113 -22 -28 -37 -28
-129 0 -166 25 -34 85 -42 114 -16 17 15 19 15 25 0 3 -9 17 -16 30 -16 l24 0
0 160 0 160 -30 0 c-30 0 -30 -1 -30 -55z m-12 -97 c7 -7 12 -30 12 -53 0 -46
-13 -65 -45 -65 -32 0 -45 19 -45 65 0 46 13 65 45 65 12 0 26 -5 33 -12z"/>
<path d="M8810 5111 l0 -151 25 0 25 0 1 113 1 112 36 -113 c36 -113 36 -113
66 -110 28 3 31 8 67 113 l37 110 1 -112 1 -113 30 0 30 0 0 150 0 150 -44 0
-44 0 -37 -111 c-20 -60 -39 -108 -41 -106 -2 2 -19 51 -37 108 l-33 104 -42
3 -42 3 0 -150z"/>
<path d="M9263 5188 c-49 -13 -73 -51 -73 -115 0 -47 4 -59 29 -84 25 -25 37
-29 84 -29 71 0 87 7 87 37 0 20 -4 24 -17 18 -47 -18 -81 -17 -102 4 -35 35
-26 41 55 41 l77 0 -6 41 c-9 72 -62 106 -134 87z m65 -50 c25 -25 13 -38 -33
-38 -49 0 -50 1 -35 31 12 21 50 25 68 7z"/>
<path d="M9543 5184 c-23 -8 -39 -10 -41 -4 -2 6 -15 10 -28 10 -24 0 -24 0
-24 -115 l0 -115 30 0 30 0 1 63 c2 96 8 112 49 112 l35 0 3 -87 3 -88 29 0
30 0 0 93 c0 130 -28 161 -117 131z"/>
<path d="M10070 5191 c-43 -10 -61 -26 -76 -70 -18 -54 -5 -111 33 -141 22
-17 38 -20 87 -18 58 3 61 4 64 30 3 26 3 26 -37 16 -33 -8 -45 -7 -66 6 -14
9 -25 23 -25 31 0 12 16 15 75 15 69 0 75 2 75 20 0 26 -25 85 -39 95 -23 13
-66 21 -91 16z m60 -60 c15 -30 14 -31 -35 -31 -30 0 -45 4 -45 13 0 37 62 51
80 18z"/>
<path d="M10314 5194 c-5 -1 -22 -5 -37 -8 -34 -8 -51 -45 -37 -82 6 -16 26
-32 55 -45 51 -22 64 -37 44 -50 -13 -9 -63 -5 -95 8 -10 4 -14 -2 -14 -20 0
-30 16 -37 84 -37 42 0 57 5 74 23 40 43 23 89 -44 117 -24 11 -44 24 -44 30
0 17 28 23 59 12 26 -9 31 -8 36 9 4 10 4 23 1 28 -6 8 -64 19 -82 15z"/>
</g>
</svg>
